<?xml version="1.0" encoding="iso-8859-1"?>
<!-- Generator: Adobe Illustrator 19.0.0, SVG Export Plug-In . SVG Version: 6.00 Build 0)  -->
<svg version="1.1" id="Layer_1" xmlns="http://www.w3.org/2000/svg" xmlns:xlink="http://www.w3.org/1999/xlink" x="0px" y="0px"
	 viewBox="0 0 484.16 484.16" style="enable-background:new 0 0 484.16 484.16;" xml:space="preserve">
<g>
	<g id="XMLID_48_">
		<g>
			<path style="fill:#FFD248;" d="M242.08,187.179c0,0,69.875,99.822,0,99.822S242.08,187.179,242.08,187.179z"/>
			<path style="fill:#E7ECED;" d="M330.722,227.307c0.799,4.791,1.198,9.783,1.198,14.774s-0.399,9.982-1.198,14.774
				c-7.087,42.624-44.021,75.066-88.642,75.066c-44.62,0-81.554-32.442-88.642-75.066c-0.799-4.791-1.198-9.782-1.198-14.774
				s0.399-9.982,1.198-14.774c7.087-42.624,44.021-75.066,88.642-75.066C286.7,152.241,323.634,184.683,330.722,227.307z
				 M242.08,287.001c69.875,0,0-99.822,0-99.822S172.205,287.001,242.08,287.001z"/>
			<path style="fill:#858C90;" d="M406.786,446.716c5.49,0,9.982,4.492,9.982,9.982v9.982c0,5.49-4.492,9.982-9.982,9.982H77.374
				c-5.49,0-9.982-4.492-9.982-9.982v-9.982c0-5.49,4.492-9.982,9.982-9.982h19.964h289.483H406.786z"/>
			<path style="fill:#858C90;" d="M386.822,227.108h19.964c5.49,0,9.982,4.492,9.982,9.982v9.982c0,5.49-4.492,9.982-9.982,9.982
				h-19.964H331.92l-1.198-0.2c0.799-4.791,1.198-9.782,1.198-14.774s-0.399-9.982-1.198-14.774l1.198-0.2h54.902V227.108z"/>
			<path style="fill:#858C90;" d="M152.24,242.081c0,4.991,0.399,9.982,1.198,14.774l-1.198,0.2H97.338H77.374
				c-5.49,0-9.982-4.492-9.982-9.982v-9.982c0-5.49,4.492-9.982,9.982-9.982h19.964h54.902l1.198,0.2
				C152.64,232.099,152.24,237.09,152.24,242.081z"/>
			<path style="fill:#858C90;" d="M77.374,7.5h329.412c5.49,0,9.982,4.492,9.982,9.982v9.982c0,5.49-4.492,9.982-9.982,9.982
				h-19.964H97.338H77.374c-5.49,0-9.982-4.492-9.982-9.982v-9.982C67.392,11.992,71.884,7.5,77.374,7.5z"/>
			<path style="fill:#AFB6BB;" d="M97.338,97.339V37.446h289.483v189.661h-54.902l-1.198,0.2
				c-7.087-42.624-44.021-75.066-88.642-75.066c-44.62,0-81.554,32.442-88.642,75.066l-1.198-0.2H97.338V97.339z"/>
			<path style="fill:#AFB6BB;" d="M97.338,376.84V257.054h54.902l1.198-0.2c7.087,42.624,44.021,75.066,88.642,75.066
				c44.62,0,81.554-32.442,88.642-75.066l1.198,0.2h54.902v189.661H97.338V376.84z"/>
		</g>
		<g>
			<path style="fill:#231F20;" d="M406.786,44.946c9.64,0,17.482-7.843,17.482-17.482v-9.983c0-9.64-7.843-17.481-17.482-17.481
				H77.374c-9.64,0-17.482,7.842-17.482,17.481v9.983c0,9.64,7.842,17.482,17.482,17.482h12.464v174.661H77.374
				c-9.64,0-17.482,7.843-17.482,17.482v9.982c0,9.64,7.842,17.482,17.482,17.482h12.464v174.661H77.374
				c-9.64,0-17.482,7.842-17.482,17.482v9.982c0,9.64,7.842,17.482,17.482,17.482h329.412c9.64,0,17.482-7.843,17.482-17.482v-9.982
				c0-9.64-7.843-17.482-17.482-17.482h-12.464V264.555h12.464c9.64,0,17.482-7.843,17.482-17.482v-9.982
				c0-9.64-7.843-17.482-17.482-17.482h-12.464V44.946H406.786z M74.892,27.464v-9.983c0-1.345,1.137-2.481,2.482-2.481h329.412
				c1.346,0,2.482,1.137,2.482,2.481v9.983c0,1.346-1.137,2.482-2.482,2.482H77.374C76.029,29.946,74.892,28.81,74.892,27.464z
				 M74.892,247.072v-9.982c0-1.346,1.137-2.482,2.482-2.482h67.654c-0.185,2.47-0.288,4.964-0.288,7.474s0.104,5.004,0.288,7.474
				H77.374C76.029,249.555,74.892,248.418,74.892,247.072z M409.268,456.697v9.982c0,1.346-1.137,2.482-2.482,2.482H77.374
				c-1.345,0-2.482-1.137-2.482-2.482v-9.982c0-1.345,1.137-2.482,2.482-2.482h329.412
				C408.131,454.216,409.268,455.353,409.268,456.697z M379.322,439.216H104.838V384.34H336.91v-15H104.838V264.555h42.53
				c4.742,19.961,15.733,38.069,31.439,51.515c17.589,15.059,40.06,23.352,63.273,23.352s45.684-8.293,63.273-23.352
				c15.706-13.446,26.697-31.555,31.438-51.515h42.53v174.661H379.322z M159.74,242.081c0-4.621,0.369-9.178,1.096-13.543
				c6.628-39.863,40.796-68.797,81.244-68.797s74.615,28.934,81.243,68.797v0.002c0.727,4.363,1.096,8.92,1.096,13.541
				s-0.369,9.178-1.096,13.543c-6.628,39.863-40.796,68.797-81.243,68.797s-74.615-28.934-81.244-68.799
				C160.109,251.259,159.74,246.702,159.74,242.081z M409.268,237.09v9.982c0,1.346-1.137,2.482-2.482,2.482h-67.654
				c0.185-2.47,0.288-4.964,0.288-7.474s-0.104-5.004-0.288-7.474h67.654C408.131,234.607,409.268,235.744,409.268,237.09z
				 M379.322,219.607h-42.53c-4.742-19.961-15.733-38.069-31.438-51.515c-17.589-15.059-40.06-23.352-63.273-23.352
				s-45.684,8.293-63.273,23.352c-15.706,13.446-26.697,31.555-31.439,51.515h-42.53V104.839h232.072v-15H104.838V44.946h274.483
				v174.661H379.322z"/>
			<path style="fill:#231F20;" d="M242.08,294.501c17.366,0,29.097-5.618,34.866-16.697c6.949-13.346,4.006-33.651-8.745-60.353
				c-8.966-18.776-19.531-33.938-19.976-34.573l-6.144-8.777l-6.144,8.777c-0.445,0.636-11.01,15.797-19.977,34.573
				c-12.751,26.701-15.693,47.006-8.745,60.353C212.983,288.883,224.713,294.501,242.08,294.501z M242.08,200.825
				c14.103,22.71,29.091,55.598,21.559,70.055c-2.98,5.721-10.234,8.621-21.559,8.621c-11.325,0-18.579-2.9-21.56-8.621
				C212.988,256.422,227.977,223.534,242.08,200.825z"/>
		</g>
	</g>
</g>
<g>
</g>
<g>
</g>
<g>
</g>
<g>
</g>
<g>
</g>
<g>
</g>
<g>
</g>
<g>
</g>
<g>
</g>
<g>
</g>
<g>
</g>
<g>
</g>
<g>
</g>
<g>
</g>
<g>
</g>
</svg>
