<?xml version="1.0" encoding="utf-8"?>
<!-- Generator: Adobe Illustrator 16.0.0, SVG Export Plug-In . SVG Version: 6.00 Build 0)  -->
<!DOCTYPE svg PUBLIC "-//W3C//DTD SVG 1.1//EN" "http://www.w3.org/Graphics/SVG/1.1/DTD/svg11.dtd">
<svg version="1.1" id="Layer_1" xmlns="http://www.w3.org/2000/svg" xmlns:xlink="http://www.w3.org/1999/xlink" x="0px" y="0px"
	 width="76px" height="74.35px" viewBox="0 0 76 74.35" enable-background="new 0 0 76 74.35" xml:space="preserve">
<g>
	<path fill="#989899" d="M70.848,63.901L58.09,51.55c-0.355-0.416-0.771-0.75-1.199-1.049c2.506-4.229,3.945-9.158,3.945-14.436
		c0-15.666-12.701-28.369-28.368-28.369c-15.671,0-28.377,12.703-28.377,28.369c0,15.674,12.706,28.369,28.377,28.369
		c5.957,0,11.481-1.839,16.048-4.979c0.049,0.062,0.08,0.137,0.135,0.189l12.758,12.354c2.236,2.605,6.16,2.908,8.768,0.672
		C72.782,70.437,73.086,66.51,70.848,63.901z M32.468,54.319c-10.081,0-18.251-8.168-18.251-18.254
		c0-10.074,8.17-18.25,18.251-18.25c10.079,0,18.249,8.176,18.249,18.25C50.717,46.151,42.547,54.319,32.468,54.319z"/>
</g>
</svg>
